<?xml version="1.0" standalone="no"?>
<!DOCTYPE svg PUBLIC "-//W3C//DTD SVG 20010904//EN"
 "http://www.w3.org/TR/2001/REC-SVG-20010904/DTD/svg10.dtd">
<svg version="1.0" xmlns="http://www.w3.org/2000/svg"
 width="1199.000000pt" height="1280.000000pt" viewBox="0 0 1199.000000 1280.000000"
 preserveAspectRatio="xMidYMid meet">
<metadata>
Created by potrace 1.15, written by Peter Selinger 2001-2017
</metadata>
<g transform="translate(0.000000,1280.000000) scale(0.100000,-0.100000)"
fill="#000000" stroke="none">
<path d="M3672 12786 c-118 -23 -228 -63 -375 -139 -133 -68 -138 -70 -176
-59 -59 18 -120 14 -209 -13 -45 -13 -143 -33 -218 -44 -181 -28 -322 -85
-499 -204 -78 -52 -190 -161 -221 -212 -13 -23 -42 -98 -64 -167 -59 -186 -91
-225 -284 -351 -44 -29 -93 -69 -109 -90 -41 -50 -45 -116 -18 -267 42 -227
27 -341 -83 -627 -103 -270 -107 -322 -32 -479 38 -80 56 -96 135 -115 86 -22
193 -79 219 -118 19 -29 22 -46 20 -105 l-2 -71 58 -85 c98 -141 169 -315 187
-454 12 -93 20 -112 95 -202 69 -85 91 -127 100 -192 5 -39 15 -59 43 -90 42
-46 91 -131 160 -283 66 -142 68 -151 41 -193 -20 -33 -44 -136 -31 -136 3 0
16 16 28 35 30 46 72 74 83 55 9 -15 -1 -46 -59 -182 -53 -124 -74 -209 -69
-269 4 -38 15 -60 54 -110 94 -118 117 -140 180 -169 57 -26 64 -32 74 -70 12
-46 5 -120 -16 -162 -10 -20 -34 -34 -95 -58 -101 -39 -150 -69 -185 -116
l-28 -37 27 -48 c64 -116 22 -155 -216 -199 -163 -31 -234 -57 -277 -101 -27
-28 -47 -39 -82 -44 -54 -8 -209 -83 -219 -105 -29 -72 -30 -72 -179 -135
-170 -72 -215 -94 -291 -146 -164 -111 -384 -434 -503 -741 -80 -203 -120
-394 -156 -743 -25 -236 -60 -357 -140 -478 -27 -41 -71 -126 -98 -188 -27
-63 -76 -165 -110 -227 -57 -106 -132 -269 -132 -288 0 -20 29 32 193 346 185
356 251 473 315 557 l39 52 6 183 c11 296 45 505 122 735 89 268 210 471 379
639 186 185 387 302 531 312 91 5 130 -18 160 -96 11 -28 23 -52 26 -52 15 0
16 43 2 70 -19 38 -9 101 19 127 20 18 21 17 74 -42 30 -33 54 -56 54 -52 0
19 -35 75 -67 109 -43 45 -37 63 19 54 83 -13 157 -66 200 -143 36 -64 42 -59
54 49 8 79 20 104 40 87 8 -6 14 -19 14 -29 0 -9 13 -37 30 -61 35 -52 39
-100 10 -147 l-20 -33 30 16 c30 16 32 15 61 -16 32 -35 69 -99 69 -121 0 -8
14 -30 31 -51 27 -33 31 -43 25 -78 -6 -38 -5 -39 18 -33 30 7 56 -26 56 -73
0 -23 5 -33 16 -33 8 0 21 -15 29 -34 8 -18 25 -40 39 -49 16 -11 26 -28 28
-48 2 -18 11 -36 21 -40 9 -5 25 -13 34 -18 10 -4 29 -27 43 -50 17 -28 38
-48 66 -60 27 -13 45 -29 53 -50 13 -30 15 -31 82 -31 38 0 69 3 69 8 -1 4
-24 25 -52 47 -87 67 -302 288 -358 366 -140 198 -234 463 -256 715 l-6 80 63
29 c64 29 64 29 344 36 519 14 521 14 649 111 107 80 159 138 206 229 65 128
53 122 174 83 238 -77 447 -63 671 46 73 35 118 65 165 110 l65 61 -75 -39
c-115 -61 -256 -119 -366 -149 -84 -23 -119 -27 -229 -28 -275 0 -394 69 -894
519 -307 277 -445 428 -566 621 -65 104 -95 180 -95 241 0 42 4 50 53 97 30
29 102 81 161 117 351 213 378 233 446 311 36 42 122 154 192 250 69 96 171
226 225 290 153 177 181 216 230 314 118 234 199 315 375 374 121 41 215 55
370 55 l138 0 -22 23 c-33 36 -135 81 -206 92 -79 13 -158 0 -215 -33 -95 -56
-116 -19 -37 67 63 69 141 120 182 119 99 -3 208 -51 261 -115 27 -33 51 -49
95 -66 53 -19 66 -29 115 -94 30 -39 102 -126 161 -191 160 -178 187 -244 271
-651 45 -219 54 -244 135 -369 86 -136 110 -192 117 -273 9 -119 -42 -343
-118 -508 -16 -36 -42 -94 -59 -131 l-30 -65 44 35 c76 63 71 71 136 -234 144
-672 246 -879 491 -994 201 -95 294 -98 616 -18 281 70 374 84 526 80 69 -1
131 -7 136 -13 12 -12 -164 -466 -202 -523 -14 -20 -41 -71 -60 -112 -45 -94
-122 -187 -257 -308 -122 -109 -394 -321 -480 -373 l-60 -37 -487 -5 c-399 -4
-510 -8 -611 -23 -92 -13 -125 -15 -134 -6 -9 9 -8 39 1 125 12 101 11 117 -4
152 -33 80 -101 125 -201 133 -79 6 -149 -17 -206 -67 l-43 -39 -5 -93 c-6
-92 -7 -96 -65 -197 -32 -57 -66 -107 -74 -111 -9 -5 -56 -11 -106 -14 -104
-7 -201 -32 -477 -122 -182 -60 -207 -65 -330 -75 -210 -16 -192 -19 -299 60
-51 39 -95 67 -96 63 -2 -5 3 -28 10 -53 11 -40 16 -45 57 -56 112 -31 162
-44 253 -64 112 -25 120 -37 52 -78 -25 -15 -80 -48 -122 -74 -175 -109 -638
-329 -875 -417 -162 -60 -412 -137 -473 -147 -43 -6 -44 -5 -71 37 -38 60 -95
119 -114 118 -10 0 -11 -2 -2 -6 6 -2 12 -19 12 -37 0 -27 5 -35 33 -47 26
-11 33 -21 35 -49 2 -19 12 -43 23 -53 10 -10 19 -23 19 -29 0 -7 6 -4 13 6
11 15 35 20 118 27 128 11 313 48 439 90 139 45 457 205 770 389 499 292 775
415 1059 471 85 16 89 11 107 -135 8 -64 21 -137 30 -162 25 -74 25 -74 -151
-74 -187 0 -173 4 -555 -163 -650 -283 -877 -375 -1136 -460 -242 -79 -520
-147 -604 -147 -39 0 -43 -4 -60 -63 -8 -25 -6 -29 24 -41 24 -10 40 -28 60
-67 14 -29 26 -63 26 -76 0 -14 6 -23 15 -23 21 0 19 15 -16 103 -16 44 -29
89 -27 100 3 24 4 24 168 62 423 98 857 254 1420 510 202 92 267 114 325 108
28 -3 61 -14 74 -24 35 -28 108 -25 184 7 54 23 71 26 137 21 107 -7 181 -34
199 -72 22 -47 26 -250 7 -385 -30 -217 -89 -419 -129 -444 -12 -8 -56 -19
-97 -26 -198 -32 -349 -130 -696 -451 -353 -327 -437 -372 -771 -410 -196 -22
-267 -34 -291 -49 -14 -8 -12 -9 8 -5 14 2 105 14 202 25 284 32 416 65 556
141 102 55 177 110 411 302 228 188 297 239 391 290 84 46 204 93 258 101 l42
6 0 -74 0 -74 -55 -56 c-59 -60 -69 -81 -32 -73 309 71 445 90 582 84 191 -9
388 -60 461 -120 68 -57 97 -174 54 -217 -23 -23 -94 -27 -195 -10 -107 18
-283 30 -306 22 l-23 -9 25 -6 c13 -3 83 -13 154 -22 209 -25 283 -54 311
-121 29 -70 14 -143 -40 -193 -32 -30 -32 -40 -2 -68 36 -35 66 -107 66 -159
0 -89 -47 -132 -275 -252 -66 -35 -131 -71 -145 -82 -50 -38 -11 -28 100 26
63 31 133 63 155 71 l40 14 38 -42 c55 -61 56 -79 10 -135 -57 -70 -217 -210
-308 -269 -169 -111 -363 -189 -545 -221 -73 -12 -137 -15 -275 -12 l-180 5
-145 49 -145 48 -205 1 c-238 0 -269 -5 -507 -92 -148 -54 -154 -55 -168 -37
-13 18 -56 114 -135 307 l-32 78 -34 -36 c-28 -31 -36 -35 -53 -25 -21 11 -27
26 -34 95 -3 27 -15 51 -36 74 -31 33 -31 33 30 -140 81 -228 119 -346 119
-363 0 -8 -9 -18 -21 -21 -16 -5 -20 -14 -17 -38 l3 -32 -55 -3 c-100 -5 -230
-4 -590 5 -329 7 -358 9 -389 28 -67 40 -49 55 92 79 l82 14 -202 1 c-209 1
-272 -12 -122 -25 76 -6 82 -9 99 -37 11 -17 17 -34 14 -39 -3 -4 -97 -8 -208
-8 -112 0 -227 -5 -256 -10 -61 -12 -71 -6 -100 50 -18 35 -22 38 -80 44 -48
6 -60 10 -60 25 0 9 56 176 126 371 69 194 127 367 130 384 l5 31 -15 -25 c-8
-14 -15 -32 -16 -41 0 -10 -13 -43 -30 -74 -16 -31 -30 -67 -30 -79 0 -11 -18
-70 -39 -131 -33 -93 -43 -112 -68 -125 -28 -14 -28 -16 -11 -33 17 -16 17
-19 2 -55 -9 -20 -27 -68 -41 -107 -13 -38 -30 -77 -38 -85 -8 -9 -15 -24 -15
-33 0 -48 -75 -157 -107 -157 -17 0 -52 45 -55 70 -2 19 2 26 19 28 20 3 21 6
12 24 -14 25 3 93 25 101 7 3 17 27 21 54 3 26 13 58 20 70 8 11 20 43 26 70
7 26 20 64 31 83 10 19 18 42 18 51 0 8 11 38 25 65 14 27 25 56 25 64 0 8 11
38 25 65 13 28 25 59 25 70 1 32 37 103 59 117 17 10 21 23 21 66 0 62 13 92
40 92 17 0 20 7 20 49 0 58 7 81 26 81 16 0 26 50 22 110 -3 42 -7 34 -69
-140 -37 -102 -72 -202 -78 -222 -11 -33 -18 -38 -69 -53 -31 -10 -70 -24 -87
-32 -28 -15 -28 -17 -10 -24 11 -4 39 -8 63 -8 31 -1 42 -5 42 -16 0 -27 -270
-740 -286 -754 -5 -5 -37 -19 -72 -31 -102 -37 -112 -49 -112 -132 0 -186 112
-404 330 -640 176 -191 365 -289 663 -345 132 -24 495 -24 626 0 182 35 376
109 501 192 108 72 235 205 297 311 79 136 75 131 114 115 40 -16 152 -43 268
-64 59 -11 113 -31 185 -67 98 -49 160 -66 300 -84 78 -10 49 2 -93 39 -158
41 -214 64 -237 100 -16 25 -16 27 5 55 11 16 21 38 21 48 0 24 36 40 108 49
57 7 57 7 22 16 -70 18 -81 51 -22 66 20 5 85 14 145 19 59 5 110 12 114 16 4
4 -10 23 -31 44 -33 33 -37 34 -31 13 7 -24 7 -24 -48 -18 -70 7 -111 26 -115
53 -3 18 -16 24 -85 37 -45 10 -92 20 -104 23 -18 5 -23 2 -23 -11 0 -16 -8
-17 -70 -13 -38 3 -67 2 -65 -2 5 -9 124 -80 133 -80 3 0 -4 9 -16 21 -12 11
-20 24 -17 30 24 39 215 -44 199 -86 -9 -22 -53 -27 -86 -11 -26 14 -32 14
-45 1 -18 -19 -44 -19 -88 -1 -18 8 -36 12 -38 9 -3 -3 -22 -11 -43 -18 l-38
-13 65 -32 c98 -50 111 -60 98 -76 -15 -19 -80 -18 -129 2 -22 9 -64 19 -93
23 l-52 6 0 40 c0 37 2 40 28 43 26 3 27 5 14 20 -15 17 -20 35 -18 60 1 9 12
11 39 7 l37 -6 -48 30 c-54 35 -58 46 -21 55 l27 7 -35 24 c-35 24 -49 48 -41
73 7 20 47 14 115 -18 75 -36 88 -37 88 -8 0 13 -21 41 -56 73 -46 44 -55 57
-52 81 4 40 33 51 168 65 171 17 355 0 678 -62 189 -37 335 -59 419 -66 l82
-6 7 -56 c4 -31 3 -180 -2 -331 -11 -345 -11 -487 -1 -620 l9 -105 -99 -49
c-176 -88 -300 -239 -352 -425 l-20 -73 122 -58 c139 -66 312 -124 419 -141
107 -17 410 -5 518 20 163 37 248 81 306 157 22 29 29 50 32 98 8 126 -59 212
-286 365 -125 85 -159 118 -148 147 3 9 -2 35 -13 59 -19 42 -19 43 1 86 54
121 69 187 69 307 0 65 -7 182 -16 261 -20 187 -20 398 0 475 20 75 52 120
184 260 188 197 216 244 232 381 5 45 16 101 24 125 24 67 19 141 -16 243 -27
80 -30 95 -20 128 6 21 16 113 21 206 5 92 16 196 25 231 l15 63 -29 42 c-42
62 -59 99 -71 153 -16 72 -47 98 -159 135 -123 41 -150 67 -184 176 -35 110
-47 216 -47 418 0 284 30 448 92 500 27 23 39 26 76 22 31 -3 41 -2 33 6 -31
31 22 67 99 67 24 0 52 8 68 19 48 34 71 36 82 6 12 -31 26 -26 35 14 6 27 9
29 76 35 39 4 112 18 162 31 115 31 142 31 200 2 l46 -24 -24 29 c-26 31 -28
40 -19 74 l6 22 616 5 c481 4 639 9 717 21 55 8 124 15 153 16 52 0 52 0 46
-27 -4 -16 -54 -158 -111 -318 -195 -540 -414 -1158 -411 -1160 7 -6 47 -25
52 -25 3 0 1 12 -5 28 -6 15 -8 45 -4 67 7 50 50 145 65 145 8 0 9 11 5 31 -5
22 0 44 19 84 15 29 33 79 41 109 19 73 53 139 68 133 9 -3 12 12 13 52 1 69
19 128 45 141 13 7 19 21 19 43 0 34 21 112 40 146 15 29 31 26 65 -9 25 -26
27 -34 22 -77 -9 -67 -1 -50 91 192 144 377 208 515 241 515 40 0 44 -10 181
-394 50 -142 131 -361 180 -485 180 -461 233 -712 210 -993 -12 -148 -23 -194
-68 -287 -49 -101 -88 -141 -138 -141 -27 0 -35 -3 -27 -11 6 -6 54 -11 109
-11 87 -1 101 -4 120 -23 19 -19 24 -20 40 -7 14 10 40 13 100 9 86 -5 139
-23 139 -47 0 -24 -113 -73 -150 -65 -75 17 -249 27 -610 34 -214 4 -402 11
-417 16 -16 4 -28 13 -28 21 0 22 64 33 365 63 l80 8 -80 2 c-44 0 -210 -10
-370 -24 -159 -13 -338 -27 -397 -31 -103 -6 -108 -6 -108 13 0 30 108 363
284 877 86 252 154 461 151 465 -11 11 -32 -28 -38 -72 -7 -45 -74 -236 -107
-302 -11 -22 -20 -47 -20 -57 0 -29 -93 -281 -110 -298 -10 -10 -19 -41 -23
-73 -7 -70 -43 -141 -75 -145 -26 -4 -27 -10 -5 -34 15 -17 15 -23 4 -51 -8
-18 -22 -59 -33 -92 -11 -33 -30 -89 -43 -125 -13 -36 -28 -82 -34 -104 -5
-21 -16 -46 -24 -55 -8 -9 -19 -29 -24 -46 -9 -26 -14 -30 -46 -29 -46 2 -67
19 -67 55 0 24 4 29 24 29 23 0 24 2 15 30 -14 40 5 100 32 100 16 0 19 7 19
49 0 51 16 110 31 112 5 1 14 2 20 3 6 0 12 28 13 61 4 76 19 113 51 125 21 8
24 14 19 38 -8 42 22 154 46 171 15 10 20 25 20 59 0 26 -4 42 -8 36 -5 -5
-46 -108 -92 -229 -144 -382 -220 -570 -237 -582 -9 -7 -45 -22 -79 -33 l-64
-22 -1 -86 c-4 -225 11 -324 65 -439 63 -131 145 -199 329 -272 98 -39 193
-87 203 -102 13 -22 -26 -36 -142 -52 -64 -8 -121 -20 -127 -26 -23 -23 33
-60 120 -81 62 -14 86 -36 60 -55 -9 -7 -56 -20 -104 -30 -139 -27 -246 -75
-169 -75 13 0 29 -7 36 -15 10 -13 6 -18 -26 -32 -71 -31 -11 -25 115 12 141
40 165 42 184 15 12 -17 18 -18 48 -10 88 25 116 2 54 -46 -44 -33 -99 -53
-147 -54 -43 0 -48 12 -21 50 15 21 7 19 -63 -19 -106 -57 -111 -63 -43 -55
62 7 129 -9 129 -31 0 -11 12 -10 57 6 67 23 109 24 120 4 7 -12 27 -5 116 40
59 30 162 88 230 128 159 96 173 103 231 112 37 5 58 16 90 45 22 21 38 42 34
45 -4 4 -79 13 -167 21 -169 14 -193 18 -281 54 -30 12 -120 44 -198 71 -244
84 -290 105 -312 150 -13 24 -47 58 -95 93 -92 68 -112 97 -96 132 17 39 14
53 -24 88 -33 31 -34 35 -22 65 10 27 9 37 -7 64 -28 48 -36 85 -25 114 9 24
13 25 54 20 25 -4 45 -5 45 -3 0 3 -15 13 -32 25 -18 11 -44 30 -57 42 -23 21
-23 23 -5 36 11 8 48 13 105 13 101 0 119 -5 119 -31 0 -12 11 -24 27 -30 107
-40 1297 -63 1603 -29 123 13 235 31 248 39 7 4 -1 36 -23 91 -37 92 -42 119
-23 138 10 10 8 14 -10 19 -32 8 -52 53 -52 116 0 46 -4 58 -34 90 -34 37 -66
125 -66 181 0 16 -11 41 -25 58 -32 38 -65 146 -65 214 0 49 -3 55 -25 64 -30
11 -43 41 -59 130 -7 40 -19 74 -32 88 -30 32 -47 95 -50 181 -2 67 -5 76 -33
105 -43 44 -55 84 -41 135 9 34 33 61 53 61 12 0 44 -63 73 -145 18 -49 44
-121 59 -160 19 -50 25 -82 22 -112 -4 -34 -1 -42 14 -46 24 -6 58 -75 74
-151 7 -33 29 -93 49 -131 19 -39 45 -105 55 -148 11 -42 32 -94 46 -114 20
-31 25 -50 25 -101 0 -59 2 -66 34 -95 36 -34 66 -113 66 -172 0 -19 8 -39 19
-49 11 -10 29 -42 41 -72 21 -52 40 -70 40 -40 0 38 52 22 104 -33 34 -36 46
-39 46 -11 0 13 14 27 42 41 72 37 158 133 231 259 l26 46 -50 74 c-27 41 -59
92 -70 112 -17 33 -17 38 -4 38 22 0 14 23 -44 135 -34 65 -56 96 -85 115 -49
34 -59 52 -60 114 -1 46 -3 51 -23 48 -14 -2 -26 5 -34 20 -6 13 -21 33 -32
45 -15 18 -19 31 -15 66 5 38 3 44 -12 40 -13 -3 -21 6 -33 35 -17 43 -47 163
-47 189 0 22 76 93 100 93 30 0 31 -14 5 -64 -23 -44 -24 -46 -5 -46 21 0 28
-34 10 -45 -22 -14 -8 -24 16 -13 24 11 29 10 42 -10 24 -37 33 -25 10 14 -20
34 -20 38 -5 64 16 26 14 40 -4 40 -5 0 -6 -7 -2 -16 5 -14 3 -15 -15 -5 -24
13 -28 26 -12 36 7 4 9 24 5 48 -11 76 56 228 117 265 18 11 96 38 173 61 77
22 235 72 350 112 116 39 283 95 373 125 90 31 191 70 225 89 34 18 132 61
217 96 350 140 728 323 963 466 354 216 640 466 678 594 16 53 6 102 -70 347
-33 103 -68 232 -79 287 -25 122 -44 172 -129 337 -79 153 -142 228 -454 532
-247 242 -354 334 -465 400 -44 26 -111 74 -149 106 -39 33 -148 110 -243 172
-530 347 -856 566 -1096 737 -147 105 -273 191 -278 191 -14 0 81 -108 149
-170 74 -68 234 -172 483 -315 241 -138 480 -300 610 -413 31 -26 110 -78 176
-115 410 -231 880 -726 1139 -1197 31 -58 82 -143 113 -190 71 -109 98 -172
113 -257 6 -37 24 -120 41 -183 34 -132 47 -278 29 -332 -17 -52 -97 -126
-261 -244 -80 -57 -181 -133 -225 -170 -131 -110 -235 -184 -315 -224 -95 -48
-1107 -407 -1495 -530 -238 -76 -463 -139 -642 -179 -220 -49 -540 -104 -556
-95 -7 4 -37 29 -68 56 -68 58 -98 120 -104 216 l-5 67 15 -64 c18 -81 53
-134 113 -172 43 -28 52 -30 107 -24 183 19 711 141 995 230 263 83 1244 425
1491 521 142 55 163 68 369 233 91 72 212 164 270 204 58 39 135 101 171 137
59 58 68 72 78 120 11 60 12 56 -49 330 -46 211 -55 234 -130 350 -37 58 -96
157 -130 220 -138 256 -310 481 -550 721 -214 215 -377 342 -604 473 -55 31
-124 79 -153 106 -30 28 -58 50 -62 50 -4 0 -69 46 -143 103 -90 67 -218 148
-374 237 -350 199 -421 249 -588 415 -170 169 -235 220 -556 440 -135 93 -326
225 -425 295 -206 145 -363 246 -485 315 -102 57 -108 62 -175 145 -29 36 -96
113 -148 172 -107 119 -137 163 -168 241 -35 88 -157 222 -429 471 -226 207
-310 271 -399 308 l-46 19 47 -5 c102 -12 175 -63 468 -331 113 -103 220 -202
239 -219 l34 -31 -21 30 c-11 17 -80 89 -154 160 -73 72 -182 180 -243 241
-81 81 -126 119 -170 140 -59 28 -63 29 -225 29 l-165 0 -84 -43 c-53 -28 -93
-42 -108 -39 -19 3 -37 -11 -99 -79 -42 -46 -80 -84 -85 -84 -25 0 -34 53 -39
231 l-5 187 -45 58 c-65 84 -181 173 -381 293 -252 151 -386 241 -460 308
l-66 60 -79 6 c-98 7 -184 33 -337 103 -179 82 -225 95 -357 99 -74 3 -141 0
-188 -9z m1945 -1368 c27 -25 29 -41 7 -59 -14 -12 -20 -9 -40 16 -27 33 -30
51 -11 58 19 8 19 8 44 -15z m-130 -9 c22 -15 22 -15 -30 -54 -53 -40 -237
-222 -230 -229 2 -2 -10 -31 -25 -64 -16 -34 -32 -59 -35 -56 -16 16 -126 -40
-280 -143 -255 -172 -345 -206 -475 -183 -78 13 -102 25 -102 48 0 34 93 134
232 250 79 65 188 159 243 208 217 194 337 246 565 241 86 -1 121 -6 137 -18z
m557 -95 c3 -9 6 -26 6 -39 l0 -24 63 28 c34 16 72 32 85 35 39 13 26 -22 -30
-79 -43 -43 -61 -55 -97 -60 l-44 -7 6 43 c6 41 6 42 -7 19 -8 -14 -24 -61
-35 -105 -12 -44 -32 -100 -43 -125 -17 -37 -22 -76 -29 -218 -11 -248 -21
-281 -95 -313 -59 -26 -75 -16 -118 74 -45 92 -65 172 -71 272 l-5 80 14 -80
c22 -138 74 -267 112 -282 22 -8 63 35 75 81 6 23 15 120 18 216 5 129 11 183
23 205 9 17 30 77 48 135 18 58 41 117 52 133 22 30 62 37 72 11z m-409 -116
c2 -7 0 -76 -4 -153 -7 -118 -8 -127 -9 -56 -1 46 -4 82 -6 80 -2 -2 -18 -79
-36 -172 l-31 -167 35 -104 c30 -86 36 -117 36 -187 0 -98 -16 -133 -79 -175
-31 -20 -47 -25 -68 -19 -40 10 -100 79 -156 179 -27 47 -54 89 -60 93 -17 10
60 -125 109 -192 24 -33 61 -71 81 -85 l37 -25 -27 -3 c-64 -8 -141 76 -247
271 -97 176 -163 254 -242 284 l-33 13 40 -6 c56 -8 114 -35 160 -75 29 -26
37 -29 31 -14 -4 11 -10 43 -12 70 l-5 50 19 -55 c10 -30 47 -98 81 -150 35
-52 76 -121 92 -152 37 -74 85 -128 113 -128 12 0 32 7 44 16 66 46 72 149 17
300 -19 54 -35 113 -35 130 0 42 58 320 76 364 22 52 43 80 60 80 8 0 17 -6
19 -12z m349 -433 c4 -114 3 -119 -4 -40 -18 205 -20 252 -10 210 5 -22 12
-98 14 -170z m-1231 -217 c34 -23 96 -76 137 -118 47 -48 134 -116 235 -185
88 -60 236 -165 329 -233 324 -239 441 -306 591 -337 46 -9 172 -20 299 -26
121 -5 238 -14 260 -20 42 -11 125 -58 296 -166 52 -33 158 -94 236 -135 180
-96 229 -128 339 -219 50 -41 133 -109 185 -150 52 -42 169 -145 259 -230 91
-85 248 -231 350 -325 452 -416 616 -634 766 -1019 50 -127 104 -219 196 -335
103 -130 121 -161 144 -251 25 -98 70 -156 213 -276 173 -145 252 -227 252
-260 0 -23 -3 -25 -30 -19 -111 22 -231 124 -408 345 -175 219 -187 231 -236
232 l-41 1 40 9 c68 14 75 11 142 -53 l66 -63 -7 45 c-10 66 -38 116 -111 200
-105 119 -150 195 -234 394 -171 404 -303 576 -757 995 -105 97 -256 237 -335
311 -79 74 -169 155 -199 181 -208 172 -335 273 -395 312 -89 57 -375 207
-375 197 0 -21 116 -106 212 -156 204 -104 309 -184 638 -484 107 -98 235
-211 285 -252 118 -96 188 -169 255 -262 29 -42 118 -144 196 -226 79 -82 160
-171 181 -197 67 -86 452 -850 439 -872 -3 -5 -25 -12 -49 -16 -23 -4 -143
-27 -267 -52 -189 -37 -239 -44 -315 -41 -94 4 -158 24 -170 56 -3 9 5 30 19
50 30 42 25 55 -37 106 l-42 34 9 116 c8 107 7 117 -13 160 -26 52 -141 180
-182 201 -15 8 -54 15 -86 15 -71 1 -142 16 -164 36 -10 9 -32 56 -49 105 -39
108 -57 124 -145 134 -51 5 -77 14 -118 42 -80 54 -79 54 -157 37 -81 -16
-104 -13 -96 13 3 10 10 52 16 93 6 41 22 99 35 128 58 127 16 208 -162 315
-79 48 -117 91 -109 126 13 57 23 209 17 256 l-6 50 -95 41 c-52 22 -110 55
-129 72 l-33 31 6 74 7 73 -40 52 c-55 69 -129 126 -196 151 -31 12 -60 21
-65 21 -21 0 -46 94 -35 130 10 33 70 25 162 -19 84 -41 153 -64 153 -53 0 10
-85 66 -147 98 -55 28 -69 30 -448 53 -190 12 -250 26 -370 86 -89 44 -140 79
-496 336 -102 74 -243 174 -312 223 -70 48 -153 114 -184 146 -32 31 -93 82
-135 114 -63 45 -78 61 -78 82 0 32 8 30 93 -28z m963 -79 c10 -11 32 -27 49
-34 l30 -13 -41 -1 c-22 -1 -49 5 -60 13 -13 10 -23 11 -31 4 -16 -13 -16 -7
-3 26 12 31 31 33 56 5z m2501 -4256 c-3 -10 -5 -2 -5 17 0 19 2 27 5 18 2
-10 2 -26 0 -35z m-15 -378 l-9 -310 -1 230 c-2 205 8 462 15 410 2 -11 -1
-159 -5 -330z"/>
<path d="M5185 11375 c-144 -32 -213 -74 -400 -245 -44 -40 -137 -120 -207
-177 -127 -103 -208 -185 -208 -208 0 -19 24 -25 96 -25 102 0 171 29 345 146
155 103 254 160 316 181 26 9 34 20 44 55 10 35 36 66 136 166 l123 122 -92
-1 c-51 0 -120 -7 -153 -14z"/>
<path d="M9565 6460 c68 -75 171 -161 230 -192 51 -27 -112 119 -220 196 l-40
29 30 -33z"/>
<path d="M7130 10900 c0 -36 68 -145 142 -229 46 -51 117 -134 158 -185 62
-74 90 -99 153 -136 124 -72 437 -279 761 -504 164 -114 300 -206 301 -204 6
7 -663 517 -773 589 -40 26 -86 50 -102 54 -17 4 -35 15 -40 26 -6 10 -52 50
-103 88 -118 88 -269 237 -396 391 -56 67 -101 116 -101 110z"/>
<path d="M4239 10552 c-55 -36 -74 -58 -38 -46 47 15 201 7 264 -14 33 -11 62
-19 64 -16 2 2 -6 15 -19 29 -28 29 -109 62 -177 70 -42 6 -54 3 -94 -23z"/>
<path d="M4620 10404 c0 -3 8 -19 17 -35 13 -22 14 -32 6 -40 -8 -8 -81 -15
-205 -20 -215 -8 -280 -21 -398 -77 -108 -51 -181 -128 -249 -262 -70 -137
-124 -219 -201 -305 -97 -109 -212 -256 -333 -425 -158 -222 -222 -281 -444
-414 -210 -126 -349 -225 -365 -261 -9 -21 -7 -35 12 -82 72 -173 173 -308
419 -554 322 -322 643 -592 786 -661 157 -75 329 -86 520 -34 118 32 160 49
345 140 85 42 160 76 167 76 7 0 13 -7 13 -16 0 -53 -142 -192 -258 -252 -219
-114 -471 -136 -715 -63 l-98 29 -28 -56 c-16 -32 -32 -72 -36 -90 -5 -26 -30
-52 -123 -128 -117 -95 -172 -128 -240 -146 -20 -5 -192 -13 -382 -17 -318 -8
-351 -10 -417 -31 l-72 -23 6 -71 c18 -239 113 -498 254 -686 160 -215 468
-476 626 -532 48 -17 74 -19 148 -15 102 6 178 25 414 103 91 30 194 62 229
70 50 12 245 43 274 44 3 0 28 39 54 88 42 77 49 99 60 185 14 118 38 155 129
202 51 26 67 29 144 29 67 0 97 -5 136 -23 118 -53 155 -136 134 -299 -6 -46
-9 -85 -7 -88 3 -2 49 3 102 11 136 20 457 27 796 18 l285 -8 105 79 c449 339
634 522 685 676 9 27 23 54 31 61 24 20 61 98 131 279 35 91 67 173 70 182 4
13 -5 19 -39 28 -77 21 -233 -2 -603 -92 -248 -60 -321 -65 -455 -29 -272 74
-413 223 -523 552 -44 130 -73 243 -132 514 -25 116 -48 217 -51 225 -10 27
-67 -52 -145 -202 -121 -235 -203 -343 -253 -336 -30 4 -24 23 40 125 63 101
258 492 332 668 70 165 82 216 89 390 l6 150 -58 80 c-114 160 -138 218 -191
473 -80 385 -106 445 -264 621 -60 67 -129 147 -154 180 -26 33 -58 69 -72 80
-25 20 -54 28 -54 15z"/>
<path d="M8940 9415 c7 -9 15 -13 17 -11 7 7 -7 26 -19 26 -6 0 -6 -6 2 -15z"/>
<path d="M1931 6403 c16 -32 44 -111 64 -176 19 -65 60 -173 89 -240 30 -67
77 -175 106 -241 59 -133 76 -210 44 -204 -27 5 -65 82 -197 398 -155 370
-155 370 -167 370 -16 0 -64 -80 -54 -90 5 -4 20 -10 34 -12 35 -4 37 -38 5
-68 -32 -30 -32 -40 3 -40 41 0 44 -8 20 -49 l-21 -36 32 -51 c44 -72 70 -155
82 -254 14 -126 46 -271 89 -400 47 -140 56 -210 37 -265 -12 -34 -12 -43 2
-68 15 -26 15 -29 -3 -42 -11 -8 -28 -15 -39 -15 -17 0 -18 -4 -11 -37 5 -21
9 -63 8 -94 -1 -94 -47 -151 -146 -174 l-53 -13 40 -1 c116 -3 553 156 920
333 361 174 417 205 409 224 -4 9 -12 36 -18 60 -14 57 -36 55 -36 -3 0 -66
-23 -105 -61 -105 -73 0 -120 22 -193 90 -86 79 -136 110 -231 140 -60 19 -77
31 -120 78 -27 30 -106 116 -174 191 -249 273 -304 373 -326 591 -13 130 -35
178 -108 231 -22 16 -43 29 -47 29 -4 0 6 -26 21 -57z"/>
<path d="M1807 6373 c-12 -12 -7 -22 8 -17 8 4 15 10 15 15 0 11 -14 12 -23 2z"/>
<path d="M2161 6340 c-22 -37 -24 -51 -15 -87 8 -29 19 -22 44 27 24 47 24 51
6 75 -13 18 -15 17 -35 -15z"/>
<path d="M2105 6168 c10 -68 56 -206 79 -241 23 -34 58 -46 82 -27 21 18 17
39 -9 49 -29 11 -55 50 -64 94 -3 17 -17 42 -30 54 -20 19 -23 29 -17 59 7 37
-4 53 -34 54 -10 0 -12 -10 -7 -42z"/>
<path d="M1785 6160 c3 -5 13 -10 21 -10 8 0 12 5 9 10 -3 6 -13 10 -21 10 -8
0 -12 -4 -9 -10z"/>
<path d="M2269 6117 c-19 -12 -35 -31 -37 -41 -5 -24 6 -66 17 -66 20 0 77
115 62 124 -5 3 -24 -5 -42 -17z"/>
<path d="M1805 6050 c-7 -12 29 -291 55 -421 11 -52 33 -139 50 -193 64 -208
60 -266 -28 -398 l-25 -38 -112 0 c-139 0 -187 -15 -260 -81 -76 -71 -120
-155 -139 -270 -13 -78 38 -227 104 -302 l32 -37 -67 -186 c-37 -102 -64 -188
-60 -192 11 -11 35 30 35 60 0 18 10 38 26 53 20 18 25 32 22 57 l-3 33 54 0
c42 -1 57 -5 71 -22 17 -22 18 -21 41 39 27 68 49 89 76 72 20 -13 20 -14 3
-134 -7 -47 -13 -206 -14 -355 l-1 -270 28 -85 c16 -47 32 -113 36 -147 5 -47
13 -66 30 -81 21 -16 22 -21 11 -43 -7 -13 -28 -41 -45 -62 -18 -21 -35 -50
-38 -66 -8 -37 -31 -46 -189 -71 -73 -12 -169 -29 -213 -37 -44 -8 -92 -18
-107 -20 -20 -4 -30 0 -34 11 -7 17 -3 26 204 586 146 396 202 556 202 578 0
12 -3 12 -15 2 -8 -7 -15 -24 -15 -38 0 -26 -30 -110 -75 -212 -14 -30 -30
-75 -36 -100 -6 -25 -24 -70 -40 -100 -16 -30 -29 -64 -29 -76 0 -20 -89 -265
-112 -307 -6 -12 -13 -34 -15 -50 -4 -34 -50 -127 -63 -127 -6 0 -10 -15 -10
-32 0 -18 -11 -69 -25 -112 -14 -44 -22 -82 -20 -85 3 -2 69 10 147 27 79 17
211 45 293 62 83 17 251 53 375 80 124 27 239 50 255 52 29 3 32 -1 111 -156
67 -132 82 -155 87 -135 11 42 8 55 -18 67 -32 15 -60 105 -50 162 6 38 5 40
-18 40 -34 0 -49 21 -54 78 -7 74 -15 82 -28 27 l-11 -50 -131 0 c-125 0 -133
1 -157 24 -38 36 -61 94 -90 228 -15 67 -43 175 -62 240 -29 94 -36 136 -37
208 -1 83 2 97 38 185 21 52 41 111 45 130 5 29 10 35 28 33 26 -3 41 22 23
40 -6 6 -11 21 -11 34 0 12 -11 33 -25 47 -20 20 -25 35 -25 76 0 37 -4 50
-14 50 -30 0 -46 30 -46 87 0 40 -5 62 -20 80 -12 16 -20 41 -20 64 0 35 -2
38 -32 41 -43 4 -46 22 -7 58 31 28 32 30 11 30 -34 0 -27 33 13 69 20 17 47
31 60 31 31 0 88 -50 110 -96 24 -50 54 -61 101 -38 86 43 104 131 49 236 -35
68 -28 88 26 69 18 -6 36 -8 41 -3 4 4 9 55 10 112 2 96 -1 112 -31 195 -45
122 -67 214 -90 380 -25 172 -32 196 -76 269 -21 36 -35 71 -35 92 0 33 -14
52 -25 34z"/>
<path d="M2335 5976 c-35 -64 -41 -46 68 -200 64 -90 71 -97 79 -77 10 28 2
43 -20 39 -12 -2 -18 8 -24 39 -6 28 -15 44 -28 48 -24 8 -32 32 -39 128 l-6
79 -30 -56z"/>
<path d="M2442 5870 c0 -14 2 -19 5 -12 2 6 2 18 0 25 -3 6 -5 1 -5 -13z"/>
<path d="M2335 5760 c-8 -14 26 -59 124 -164 42 -45 94 -102 117 -128 22 -25
56 -56 75 -67 45 -26 165 -72 172 -65 9 9 -4 34 -17 34 -7 0 -27 16 -45 35
-28 31 -37 35 -80 35 -47 0 -50 2 -117 73 -38 40 -94 106 -125 147 -68 90 -94
116 -104 100z"/>
<path d="M2541 5654 c-20 -34 -20 -36 -4 -59 10 -14 21 -25 26 -25 4 0 7 27 7
60 0 33 -2 60 -4 60 -2 0 -13 -16 -25 -36z"/>
<path d="M2637 5603 c-4 -3 -7 -16 -7 -28 0 -11 -5 -26 -12 -33 -10 -10 -6
-18 15 -39 32 -32 40 -27 39 27 -1 64 -15 94 -35 73z"/>
<path d="M2762 5475 c12 -27 28 -34 28 -12 0 14 -20 37 -32 37 -4 0 -2 -11 4
-25z"/>
<path d="M4190 5419 c-271 -70 -559 -200 -943 -428 -573 -339 -867 -464 -1182
-501 -55 -6 -114 -14 -132 -16 l-32 -5 16 -52 c8 -29 16 -53 17 -54 6 -6 322
71 462 112 275 82 501 171 1094 430 179 78 367 159 418 180 50 22 92 44 92 51
0 6 -12 37 -26 68 -26 56 -28 86 -8 93 21 7 63 -38 80 -85 9 -26 26 -55 37
-64 18 -17 67 -24 79 -13 3 3 -5 35 -18 71 -13 36 -24 76 -24 89 0 51 41 41
67 -16 20 -42 33 -50 33 -19 0 24 26 26 51 4 30 -27 39 -8 39 87 0 104 6 100
-120 68z"/>
<path d="M2860 5385 c0 -14 5 -25 10 -25 6 0 10 11 10 25 0 14 -4 25 -10 25
-5 0 -10 -11 -10 -25z"/>
<path d="M7635 5328 c-92 -203 -268 -676 -496 -1337 -153 -443 -283 -816 -294
-843 -6 -16 -1 -18 48 -18 31 0 154 9 274 19 254 23 487 38 734 47 l175 6 32
46 c43 64 77 152 98 252 13 66 15 116 11 239 -8 238 -51 402 -226 860 -54 141
-135 362 -181 491 -94 266 -115 320 -128 320 -5 0 -26 -37 -47 -82z"/>
<path d="M2921 5374 c0 -11 3 -14 6 -6 3 7 2 16 -1 19 -3 4 -6 -2 -5 -13z"/>
<path d="M2961 5346 c-16 -19 -10 -51 9 -51 17 0 26 43 12 57 -5 5 -14 3 -21
-6z"/>
<path d="M2860 5322 c0 -13 146 -152 159 -152 20 0 -7 38 -37 54 -35 18 -69
56 -74 81 -3 20 -48 36 -48 17z"/>
<path d="M3050 5252 c0 -24 7 -49 19 -63 l18 -23 12 37 c18 55 11 81 -21 85
-26 3 -28 1 -28 -36z"/>
<path d="M3285 5230 c-4 -6 -1 -17 5 -25 9 -11 17 -12 33 -3 20 10 20 11 2 24
-23 17 -32 17 -40 4z"/>
<path d="M5820 5200 c6 -11 16 -20 22 -20 6 0 3 9 -7 20 -10 11 -20 20 -22 20
-2 0 1 -9 7 -20z"/>
<path d="M5878 5204 c6 -11 19 -27 28 -35 16 -13 16 -12 6 7 -6 11 -19 27 -28
35 -16 13 -16 12 -6 -7z"/>
<path d="M4220 5184 c0 -23 35 -61 43 -47 3 5 -5 22 -18 39 -22 26 -24 27 -25
8z"/>
<path d="M5610 5180 c0 -13 37 -50 50 -50 17 0 23 29 10 45 -14 17 -60 21 -60
5z"/>
<path d="M5500 5173 c1 -4 7 -30 14 -58 11 -43 17 -50 40 -53 32 -4 32 1 -2
62 -24 44 -53 71 -52 49z"/>
<path d="M5806 5155 c4 -8 11 -15 16 -15 6 0 5 6 -2 15 -7 8 -14 15 -16 15 -2
0 -1 -7 2 -15z"/>
<path d="M5734 5137 c1 -18 -8 -24 -59 -38 -48 -13 -61 -20 -65 -40 -5 -21
-14 -25 -65 -31 -120 -15 -219 -58 -132 -58 51 0 136 27 209 65 53 28 79 35
122 35 81 0 206 19 241 37 42 23 16 27 -46 9 -72 -22 -110 -20 -150 7 -55 37
-56 37 -55 14z"/>
<path d="M5371 5122 c-1 -13 12 -37 28 -53 31 -30 46 -36 56 -19 10 15 -14 50
-34 50 -10 0 -26 10 -34 23 l-16 22 0 -23z"/>
<path d="M5245 5066 c27 -36 73 -71 82 -63 8 9 -26 65 -49 81 -12 9 -31 16
-41 16 -16 0 -15 -4 8 -34z"/>
<path d="M6050 5030 c-14 -4 -68 -24 -120 -45 -256 -101 -393 -135 -537 -135
-75 0 -84 -2 -81 -17 2 -11 32 -33 71 -52 152 -76 358 -44 555 86 61 41 182
150 182 164 0 11 -35 10 -70 -1z"/>
<path d="M5203 4955 c-53 -23 -37 -45 32 -45 38 0 49 11 40 40 -7 23 -27 25
-72 5z"/>
<path d="M5310 4930 c0 -5 5 -10 10 -10 6 0 10 5 10 10 0 6 -4 10 -10 10 -5 0
-10 -4 -10 -10z"/>
<path d="M7275 4760 c-16 -31 -21 -90 -7 -90 12 0 29 40 37 84 9 45 -8 48 -30
6z"/>
<path d="M1715 4760 c-3 -5 3 -10 15 -10 12 0 18 5 15 10 -3 6 -10 10 -15 10
-5 0 -12 -4 -15 -10z"/>
<path d="M7295 4616 c-9 -24 -15 -52 -13 -62 2 -12 12 5 25 44 24 70 14 86
-12 18z"/>
<path d="M7206 4574 c-3 -9 -6 -34 -6 -57 l1 -42 19 35 c11 19 19 45 20 58 0
25 -25 30 -34 6z"/>
<path d="M1727 4574 c-13 -13 -7 -24 14 -24 11 0 19 5 17 12 -5 14 -22 21 -31
12z"/>
<path d="M1765 4460 c-17 -33 -13 -50 11 -50 18 0 39 43 31 64 -10 24 -25 19
-42 -14z"/>
<path d="M8166 4474 c-12 -31 -6 -53 21 -73 14 -12 27 -20 29 -18 6 5 -29 107
-37 107 -4 0 -10 -7 -13 -16z"/>
<path d="M1847 4434 c-13 -13 -7 -42 9 -48 24 -9 26 -8 22 21 -3 26 -18 39
-31 27z"/>
<path d="M7135 4377 c-23 -36 -31 -87 -12 -87 22 0 35 21 43 68 7 48 -6 56
-31 19z"/>
<path d="M1825 4319 c-4 -11 -4 -23 0 -27 7 -7 25 17 25 36 0 20 -18 14 -25
-9z"/>
<path d="M8245 4228 c9 -75 21 -112 35 -103 15 9 12 65 -7 118 -24 66 -36 59
-28 -15z"/>
<path d="M7078 4200 c-19 -25 -25 -80 -9 -80 13 0 33 55 29 82 l-3 23 -17 -25z"/>
<path d="M8835 4200 c-27 -30 -12 -34 15 -5 13 14 19 25 13 25 -5 0 -18 -9
-28 -20z"/>
<path d="M9009 4119 c22 -42 44 -103 51 -135 8 -43 19 -65 38 -81 15 -12 52
-60 82 -105 51 -76 80 -105 80 -79 0 6 -18 34 -40 63 -21 29 -77 121 -122 205
-88 164 -157 266 -89 132z"/>
<path d="M1880 4149 c0 -29 18 -59 35 -59 20 0 19 30 -1 58 -19 28 -34 28 -34
1z"/>
<path d="M8884 4120 c-14 -21 -24 -44 -22 -51 2 -6 16 12 31 40 33 61 28 67
-9 11z"/>
<path d="M1483 4085 c-3 -9 -3 -18 0 -22 10 -10 37 6 37 22 0 20 -29 20 -37 0z"/>
<path d="M1582 3978 c-22 -62 -119 -328 -216 -591 -97 -263 -176 -482 -176
-486 0 -4 23 -2 51 5 28 7 112 23 187 34 184 28 209 35 216 63 3 12 21 41 40
63 39 46 41 17 -20 274 l-37 155 -1 297 c-1 164 -2 298 -2 298 -1 0 -20 -51
-42 -112z"/>
<path d="M8941 4045 c-33 -38 -36 -45 -22 -45 6 0 18 14 28 30 9 17 25 30 35
30 10 0 18 5 18 10 0 21 -29 9 -59 -25z"/>
<path d="M8325 4027 c-11 -41 6 -111 28 -115 35 -7 34 75 -2 120 l-19 23 -7
-28z"/>
<path d="M1875 4020 c-3 -5 -2 -10 4 -10 5 0 13 5 16 10 3 6 2 10 -4 10 -5 0
-13 -4 -16 -10z"/>
<path d="M6994 3995 c-16 -38 -19 -95 -5 -95 14 0 41 65 41 99 0 41 -18 39
-36 -4z"/>
<path d="M1929 3988 c-16 -26 -19 -44 -15 -82 8 -69 18 -74 55 -28 32 41 38
72 21 116 -13 35 -36 33 -61 -6z"/>
<path d="M8991 3988 c-22 -71 -24 -107 -7 -133 9 -14 21 -23 25 -21 22 14 22
186 0 186 -4 0 -12 -15 -18 -32z"/>
<path d="M1789 3925 c-62 -126 -64 -194 -15 -355 36 -119 67 -244 86 -342 13
-65 44 -117 81 -135 14 -7 65 -16 112 -19 l86 -7 11 27 c20 54 12 85 -50 184
-33 52 -65 112 -70 131 -5 20 -26 103 -46 184 -38 154 -41 213 -4 85 32 -112
41 -130 58 -123 9 3 27 -5 43 -21 l27 -26 21 21 c20 20 20 24 7 56 -28 66 -30
68 -51 45 -25 -27 -53 -26 -61 4 -3 15 4 42 21 77 23 44 26 59 19 89 -11 45
-32 45 -53 0 -10 -22 -24 -36 -39 -38 -19 -3 -28 10 -69 95 -26 54 -52 112
-59 128 l-12 30 -43 -90z"/>
<path d="M1430 3981 c0 -26 26 -47 34 -26 3 8 3 22 0 30 -9 21 -34 19 -34 -4z"/>
<path d="M2060 3890 c0 -11 6 -20 14 -20 9 0 12 7 9 20 -3 11 -9 20 -14 20 -5
0 -9 -9 -9 -20z"/>
<path d="M1310 3843 c-15 -41 -18 -59 -10 -67 19 -18 40 22 40 76 0 26 -2 48
-4 48 -3 0 -14 -25 -26 -57z"/>
<path d="M1377 3863 c-10 -9 -8 -46 3 -63 7 -12 12 -12 29 4 12 11 21 27 21
36 0 23 -37 39 -53 23z"/>
<path d="M9080 3831 c-16 -31 -13 -42 43 -157 30 -60 59 -131 66 -159 7 -27
27 -74 45 -103 l33 -54 71 84 c40 45 72 86 72 90 0 4 -23 19 -52 34 -71 36
-150 113 -210 206 -28 43 -52 78 -54 78 -2 0 -8 -9 -14 -19z"/>
<path d="M6925 3800 c-9 -15 5 -52 18 -47 19 6 21 57 3 57 -8 0 -18 -5 -21
-10z"/>
<path d="M8410 3758 c0 -53 37 -132 64 -137 17 -3 18 2 13 39 -6 47 -46 131
-65 138 -8 2 -12 -10 -12 -40z"/>
<path d="M2115 3719 c-5 -14 0 -28 16 -45 12 -13 24 -23 25 -21 6 6 -17 76
-26 82 -5 3 -12 -4 -15 -16z"/>
<path d="M1316 3704 c-10 -25 -7 -92 4 -99 11 -7 50 52 50 77 0 10 -9 22 -19
28 -26 13 -28 13 -35 -6z"/>
<path d="M1221 3595 c-45 -114 -141 -372 -141 -379 0 -3 14 2 30 10 28 14 30
19 30 70 0 65 20 120 48 128 21 7 32 43 32 101 0 18 12 56 26 83 14 27 24 60
22 73 -2 17 -16 -8 -47 -86z"/>
<path d="M9274 3661 c20 -22 26 -25 26 -13 0 4 -10 13 -22 21 -23 14 -23 14
-4 -8z"/>
<path d="M6877 3664 c-4 -4 -7 -35 -6 -68 l1 -61 14 32 c18 41 22 95 8 100 -5
2 -13 0 -17 -3z"/>
<path d="M9387 3623 c-14 -13 -6 -24 28 -40 44 -21 56 -11 25 22 -23 25 -41
31 -53 18z"/>
<path d="M1257 3533 c-11 -10 -8 -52 4 -75 9 -17 13 -18 20 -7 13 21 11 65 -4
78 -8 6 -17 8 -20 4z"/>
<path d="M8505 3529 c-11 -16 4 -90 25 -129 l18 -35 11 28 c15 39 14 55 -9
105 -19 42 -33 52 -45 31z"/>
<path d="M2196 3521 c-4 -7 -5 -15 -2 -18 9 -9 19 4 14 18 -4 11 -6 11 -12 0z"/>
<path d="M2115 3474 c-11 -8 -30 -13 -41 -11 -21 4 -21 3 -7 -42 21 -63 29
-69 38 -25 4 21 13 51 21 66 17 32 16 33 -11 12z"/>
<path d="M2157 3443 c-14 -13 -7 -74 9 -80 27 -10 37 11 24 51 -11 35 -20 43
-33 29z"/>
<path d="M6797 3443 c-10 -9 -9 -53 1 -53 14 0 32 23 32 42 0 18 -20 25 -33
11z"/>
<path d="M2230 3421 c0 -5 5 -13 10 -16 6 -3 10 -2 10 4 0 5 -4 13 -10 16 -5
3 -10 2 -10 -4z"/>
<path d="M1186 3354 c-9 -24 -7 -102 3 -108 19 -12 57 77 45 107 -8 22 -40 22
-48 1z"/>
<path d="M8601 3287 c-21 -62 6 -128 45 -113 19 7 15 43 -14 109 l-19 42 -12
-38z"/>
<path d="M2147 3303 c-13 -12 -7 -33 8 -33 8 0 15 9 15 20 0 20 -11 26 -23 13z"/>
<path d="M6742 3298 c-16 -21 -23 -72 -12 -88 9 -13 12 -12 26 5 37 49 24 129
-14 83z"/>
<path d="M2210 3274 c-6 -14 -10 -29 -10 -33 0 -5 -7 -14 -15 -21 -23 -19 -3
-33 35 -25 39 8 45 24 30 70 -14 41 -27 45 -40 9z"/>
<path d="M2305 3208 c4 -13 20 -53 36 -90 16 -36 29 -71 29 -77 0 -6 4 -19 9
-29 21 -39 44 -120 45 -158 1 -24 8 -50 18 -61 19 -21 48 -95 48 -123 0 -9
-12 -29 -26 -43 -21 -21 -30 -24 -50 -17 -29 11 -29 8 -7 -55 l16 -49 13 42
c32 111 93 88 111 -43 6 -45 42 -108 43 -75 0 25 -196 618 -236 714 -20 47
-40 86 -46 86 -5 0 -6 -10 -3 -22z"/>
<path d="M1117 3163 c-4 -3 -7 -28 -7 -55 0 -59 16 -61 43 -5 15 30 16 41 7
52 -13 16 -32 19 -43 8z"/>
<path d="M2260 3093 c0 -53 12 -68 39 -54 25 14 26 23 6 61 -22 43 -45 39 -45
-7z"/>
<path d="M6670 3112 c0 -5 6 -16 13 -26 12 -17 14 -17 27 -1 12 14 12 18 -1
26 -18 11 -39 12 -39 1z"/>
<path d="M7710 3101 c-43 -6 -28 -8 75 -9 72 -1 164 -7 206 -13 42 -7 85 -9
95 -5 18 7 18 8 -1 19 -23 13 -290 19 -375 8z"/>
<path d="M8196 3084 c-9 -9 -14 -19 -11 -22 3 -3 13 2 22 11 9 9 14 19 11 22
-3 3 -13 -2 -22 -11z"/>
<path d="M8667 3093 c-11 -11 -8 -47 9 -95 16 -49 38 -66 60 -48 10 9 9 22 -7
67 -25 73 -43 95 -62 76z"/>
<path d="M8300 3064 c0 -17 22 -14 28 4 2 7 -3 12 -12 12 -9 0 -16 -7 -16 -16z"/>
<path d="M5010 3011 c-98 -21 -175 -52 -147 -58 9 -3 67 9 129 27 175 49 186
66 18 31z"/>
<path d="M1062 2938 c2 -18 8 -33 13 -33 6 0 11 15 13 33 3 24 -1 32 -13 32
-12 0 -16 -8 -13 -32z"/>
<path d="M2336 2947 c-7 -28 3 -95 16 -103 22 -14 30 15 18 65 -14 58 -25 71
-34 38z"/>
<path d="M8832 2923 c-6 -20 -10 -39 -8 -41 7 -6 76 27 76 36 0 12 -34 42 -47
42 -5 0 -15 -17 -21 -37z"/>
<path d="M8744 2905 c-10 -8 -14 -15 -8 -15 5 0 19 7 30 15 10 8 14 15 8 15
-5 0 -19 -7 -30 -15z"/>
<path d="M6670 2880 c-23 -6 -21 -8 25 -29 119 -53 332 -80 705 -88 310 -7
950 5 950 17 0 5 -217 8 -482 9 -433 0 -803 10 -973 27 -85 8 -129 21 -149 43
-21 23 -43 29 -76 21z"/>
<path d="M8914 2869 c-3 -6 -1 -16 5 -22 6 -6 11 -31 11 -55 0 -26 4 -41 10
-37 11 7 14 84 4 109 -7 19 -20 21 -30 5z"/>
<path d="M1000 2805 c0 -52 10 -56 40 -18 l21 28 -21 17 c-33 27 -40 22 -40
-27z"/>
<path d="M8508 2803 c7 -3 16 -2 19 1 4 3 -2 6 -13 5 -11 0 -14 -3 -6 -6z"/>
<path d="M8712 2803 c-6 -2 -72 -17 -145 -33 -140 -30 -137 -41 4 -14 128 24
232 56 172 53 -10 0 -24 -3 -31 -6z"/>
<path d="M8785 2770 c-146 -59 -306 -78 -710 -87 -285 -6 -812 8 -1070 28
-138 10 -266 31 -353 56 -30 8 -56 12 -60 9 -3 -4 13 -43 37 -89 40 -79 64
-170 54 -208 -10 -39 6 -65 57 -93 57 -31 78 -28 37 5 -34 26 -36 59 -4 59 62
0 171 -44 190 -77 5 -8 26 -13 52 -13 l45 0 0 -49 c0 -31 -6 -55 -15 -65 -21
-20 -19 -30 11 -65 20 -24 47 -38 127 -62 56 -18 140 -49 187 -69 92 -40 166
-53 245 -42 38 5 49 11 47 23 -2 13 15 17 105 25 60 4 162 7 228 6 132 -3 223
17 280 63 27 21 29 25 16 48 -24 46 1 69 107 100 l52 16 0 -28 c0 -15 -5 -32
-12 -39 -6 -6 -9 -15 -5 -18 10 -11 47 9 95 51 41 35 42 38 26 56 -15 17 -15
20 14 49 26 25 38 30 79 30 65 0 105 26 153 101 52 81 80 159 87 241 7 81 6
81 -102 38z"/>
<path d="M2412 2716 c2 -29 8 -51 16 -54 18 -6 16 60 -3 84 -14 18 -15 15 -13
-30z"/>
<path d="M7018 2743 c7 -3 16 -2 19 1 4 3 -2 6 -13 5 -11 0 -14 -3 -6 -6z"/>
<path d="M8328 2733 c7 -3 16 -2 19 1 4 3 -2 6 -13 5 -11 0 -14 -3 -6 -6z"/>
<path d="M7628 2713 c12 -2 30 -2 40 0 9 3 -1 5 -23 4 -22 0 -30 -2 -17 -4z"/>
<path d="M941 2677 c-17 -21 -26 -77 -12 -77 18 0 61 50 61 71 0 22 -32 26
-49 6z"/>
<path d="M2480 2533 c0 -16 4 -35 10 -43 8 -12 10 -12 16 3 8 21 -3 67 -16 67
-6 0 -10 -12 -10 -27z"/>
<path d="M886 2515 c-16 -16 -14 -25 7 -53 12 -16 37 3 37 28 0 29 -25 43 -44
25z"/>
<path d="M8700 2334 c-152 -123 -229 -173 -277 -182 -38 -6 -149 -79 -139 -90
9 -8 204 81 275 125 75 46 194 152 233 206 11 15 18 27 16 27 -2 -1 -50 -39
-108 -86z"/>
<path d="M2540 2373 c0 -39 9 -65 21 -57 14 8 11 48 -6 70 -14 18 -14 17 -15
-13z"/>
<path d="M827 2383 c-23 -23 5 -82 30 -62 18 16 16 56 -3 63 -19 7 -19 7 -27
-1z"/>
<path d="M6940 2310 c0 -5 5 -10 11 -10 5 0 7 5 4 10 -3 6 -8 10 -11 10 -2 0
-4 -4 -4 -10z"/>
<path d="M6865 2270 c6 -36 35 -79 35 -50 -1 8 -10 31 -21 50 l-20 35 6 -35z"/>
<path d="M773 2234 c-8 -20 8 -48 31 -52 11 -3 16 4 16 20 0 40 -35 63 -47 32z"/>
<path d="M723 2094 c-6 -16 19 -44 39 -44 15 0 20 30 8 45 -16 20 -39 19 -47
-1z"/>
<path d="M6560 2090 c8 -5 33 -12 55 -15 22 -4 55 -16 74 -26 18 -11 36 -18
38 -15 10 10 -38 45 -74 55 -49 14 -114 15 -93 1z"/>
<path d="M7886 2015 c-3 -8 1 -21 9 -29 15 -15 52 -14 120 4 l30 8 -37 16
c-48 20 -114 21 -122 1z"/>
<path d="M8105 2020 c-18 -8 -18 -9 5 -9 14 0 34 4 45 9 18 8 18 9 -5 9 -14 0
-34 -4 -45 -9z"/>
<path d="M6358 1993 c7 -3 16 -2 19 1 4 3 -2 6 -13 5 -11 0 -14 -3 -6 -6z"/>
<path d="M7838 1993 c7 -3 16 -2 19 1 4 3 -2 6 -13 5 -11 0 -14 -3 -6 -6z"/>
<path d="M6508 1983 c12 -2 32 -2 45 0 12 2 2 4 -23 4 -25 0 -35 -2 -22 -4z"/>
<path d="M674 1969 c-3 -6 1 -18 9 -27 13 -13 19 -13 32 -2 12 10 13 16 4 26
-14 17 -35 18 -45 3z"/>
<path d="M984 1945 c21 -16 32 -13 21 4 -3 6 -14 11 -23 11 -15 -1 -15 -2 2
-15z"/>
<path d="M1100 1946 c0 -9 5 -16 10 -16 6 0 10 4 10 9 0 6 -4 13 -10 16 -5 3
-10 -1 -10 -9z"/>
<path d="M3148 1949 c-22 -12 -23 -32 -3 -49 13 -10 15 -9 15 12 0 13 5 29 12
36 15 15 0 15 -24 1z"/>
<path d="M2103 1926 c8 -16 14 -21 19 -13 4 7 47 14 110 17 l103 5 -85 7 c-47
5 -101 8 -122 8 -35 0 -36 -1 -25 -24z"/>
<path d="M1166 1915 c-7 -19 24 -36 52 -28 29 7 28 17 -3 31 -34 16 -42 15
-49 -3z"/>
<path d="M2390 1920 c0 -5 5 -10 10 -10 6 0 10 5 10 10 0 6 -4 10 -10 10 -5 0
-10 -4 -10 -10z"/>
<path d="M1062 1904 c10 -10 20 -15 24 -12 3 4 -5 12 -18 18 -22 12 -22 12 -6
-6z"/>
<path d="M1302 1898 c5 -15 28 -18 29 -3 0 6 -7 12 -17 13 -10 3 -15 -1 -12
-10z"/>
<path d="M1620 1900 c0 -13 420 -13 440 0 10 6 -62 10 -212 10 -146 0 -228 -4
-228 -10z"/>
<path d="M3251 1871 c43 -32 67 -41 116 -40 l48 0 -80 29 c-93 34 -117 38 -84
11z"/>
<path d="M2330 1870 c0 -5 4 -10 9 -10 6 0 13 5 16 10 3 6 -1 10 -9 10 -9 0
-16 -4 -16 -10z"/>
<path d="M6003 1829 c9 -5 17 -20 17 -31 0 -21 0 -21 15 -2 23 31 18 44 -17
44 -27 -1 -30 -2 -15 -11z"/>
<path d="M3060 1765 c0 -2 14 -11 30 -20 17 -9 30 -12 30 -7 0 5 -11 14 -25
20 -28 13 -35 14 -35 7z"/>
<path d="M6483 1705 c-20 -17 -23 -24 -12 -25 8 0 26 11 39 25 30 32 10 33
-27 0z"/>
<path d="M6542 1679 l-24 -29 31 0 c28 0 31 3 31 30 0 37 -9 37 -38 -1z"/>
<path d="M6688 1652 c-64 -16 -80 -37 -20 -26 38 7 119 44 92 42 -8 0 -41 -7
-72 -16z"/>
<path d="M4114 1645 c-16 -12 -16 -14 -3 -15 9 0 22 7 29 15 16 19 0 19 -26 0z"/>
<path d="M6317 1591 c-47 -33 -47 -45 1 -36 53 10 60 16 47 41 l-11 22 -37
-27z"/>
<path d="M6564 1538 c-24 -24 -44 -46 -44 -50 0 -7 99 30 113 43 11 9 -1 49
-14 49 -6 0 -30 -19 -55 -42z"/>
<path d="M6620 1480 c-12 -8 -12 -10 5 -10 11 0 27 5 35 10 12 8 12 10 -5 10
-11 0 -27 -5 -35 -10z"/>
<path d="M5847 1341 c-54 -16 -101 -32 -105 -36 -7 -8 65 -2 206 17 45 6 82
15 82 20 0 4 -7 8 -15 8 -8 0 -15 5 -15 10 0 17 -50 10 -153 -19z"/>
<path d="M3444 1329 c-11 -19 20 -38 79 -49 61 -12 106 -5 89 12 -7 7 -136 46
-159 48 -1 0 -5 -5 -9 -11z"/>
<path d="M3836 1177 c-15 -11 -17 -17 -7 -35 6 -12 24 -25 39 -28 15 -3 44
-10 64 -15 37 -9 88 4 88 23 0 11 -93 54 -135 62 -19 4 -37 1 -49 -7z"/>
<path d="M4040 826 c41 -17 106 -22 78 -6 -9 6 -38 12 -65 15 l-48 5 35 -14z"/>
</g>
</svg>
